# xmcd CD database file
#
# Track frame offsets:
#	182
#	25010
#	43862
#	65852
#	88547
#	113880
#	139907
#	163657
#	188235
#	215465
#
# Disc length: 3132 seconds
#
# Revision: 2
# Processed by: cddbd v1.5.2PL0 Copyright (c) Steve Scherf et al.
# Submitted via: CDex 1.51
#
DISCID=900c3a0a
DTITLE=Andy Snitzer - Ties That Bind
DYEAR=1994
DGENRE=Jazz
TTITLE0=Last Kiss
TTITLE1=The Shelter Of Your Arms
TTITLE2=Desire
TTITLE3=You've Changed
TTITLE4=Ties That Bind
TTITLE5=One Regret
TTITLE6=Crash Landing
TTITLE7=Whenever I'm With Her
TTITLE8=On The Sly
TTITLE9=Next Time You See Me
EXTD=YEAR: 1994
EXTT0=
EXTT1=
EXTT2=
EXTT3=
EXTT4=
EXTT5=
EXTT6=
EXTT7=
EXTT8=
EXTT9=
PLAYORDER=
